<svg xmlns="http://www.w3.org/2000/svg" viewBox="0 0 100 125"><path d="M72.9 30.1c-.8-.6-1.7-.9-2.6-.9-1.4 0-2.9.7-3.8 1.8l-23 27.7c-.3.3-.6.5-1 .5-.3 0-.7-.1-1-.4L33.2 50c-.9-1-2.1-1.4-3.3-1.4-1.4 0-2.9.7-3.8 2-1.3 1.8-1 4.3.6 5.9L38.6 69c1.1 1.2 2.7 1.8 4.3 1.8h.2c1.7-.1 3.3-.8 4.4-2.2l26.3-31.9c1.6-2 1.2-5-.9-6.6zm-.8 5.4L45.8 67.3c-.7.9-1.8 1.4-2.9 1.4h-.1c-1.1 0-2.1-.4-2.9-1.2L28 55.1c-.9-.9-1-2.4-.4-3.4.5-.7 1.3-1.2 2.2-1.2.7 0 1.4.3 1.9.8l8.4 8.8c.6.7 1.5 1 2.4 1 1 0 1.9-.4 2.6-1.2L68 32.3c.6-.7 1.4-1.1 2.3-1.1.5 0 1 .2 1.4.5.6.4 1 1.1 1 1.8.1.7-.1 1.4-.6 2z"/><path d="M50 5C25.1 5 5 25.1 5 50s20.1 45 45 45 45-20.1 45-45S74.9 5 50 5zm0 88C26.3 93 7 73.7 7 50S26.3 7 50 7s43 19.3 43 43-19.3 43-43 43z"/></svg>